<svg width="16" height="14" viewBox="0 0 16 14" fill="none" xmlns="http://www.w3.org/2000/svg">
<path d="M2.1795 13.6667C1.80659 13.6667 1.48895 13.5356 1.22659 13.2733C0.964363 13.011 0.833252 12.6933 0.833252 12.3204V1.67959C0.833252 1.30668 0.964363 0.989038 1.22659 0.726677C1.48895 0.464455 1.80659 0.333344 2.1795 0.333344H12.8203C12.9635 0.333344 13.0998 0.354454 13.2291 0.396676C13.3584 0.438899 13.477 0.502163 13.5849 0.586469L12.8926 1.27876C12.8605 1.24682 12.8205 1.22015 12.7724 1.19876C12.7244 1.17737 12.6683 1.16668 12.6041 1.16668H2.1795C2.02992 1.16668 1.907 1.21473 1.81075 1.31084C1.71464 1.40709 1.66659 1.53001 1.66659 1.67959V12.3204C1.66659 12.47 1.71464 12.5929 1.81075 12.6892C1.907 12.7853 2.02992 12.8333 2.1795 12.8333H12.8203C12.9699 12.8333 13.0928 12.7853 13.1891 12.6892C13.2852 12.5929 13.3333 12.47 13.3333 12.3204V6.69876L14.1666 5.86543V12.3204C14.1666 12.6933 14.0355 13.011 13.7733 13.2733C13.5109 13.5356 13.1933 13.6667 12.8203 13.6667H2.1795ZM7.10409 10.5738L3.30929 6.77876L3.89888 6.18918L7.12013 9.41022L14.4453 2.08501L15.0239 2.65376L7.10409 10.5738Z" fill="#1C1B1F"/>
</svg>
