<svg width="21" height="20" viewBox="0 0 21 20" fill="none" xmlns="http://www.w3.org/2000/svg">
<path d="M17.7105 13.051V6.73522C17.7102 6.45833 17.6372 6.18639 17.4986 5.94667C17.36 5.70695 17.1608 5.50788 16.9211 5.36943L11.3947 2.21154C11.1547 2.07296 10.8824 2 10.6053 2C10.3281 2 10.0558 2.07296 9.81579 2.21154L4.28947 5.36943C4.04968 5.50788 3.85051 5.70695 3.71194 5.94667C3.57338 6.18639 3.50028 6.45833 3.5 6.73522V13.051C3.50028 13.3279 3.57338 13.5998 3.71194 13.8396C3.85051 14.0793 4.04968 14.2784 4.28947 14.4168L9.81579 17.5747C10.0558 17.7133 10.3281 17.7862 10.6053 17.7862C10.8824 17.7862 11.1547 17.7133 11.3947 17.5747L16.9211 14.4168C17.1608 14.2784 17.36 14.0793 17.4986 13.8396C17.6372 13.5998 17.7102 13.3279 17.7105 13.051Z" stroke="black" stroke-linecap="round" stroke-linejoin="round"/>
</svg>
