<svg width="18" height="17" viewBox="0 0 18 17" fill="none" xmlns="http://www.w3.org/2000/svg">
<path d="M7.50271 16.5C6.46563 16.5 5.49056 16.3032 4.5775 15.9096C3.66458 15.516 2.87042 14.9818 2.195 14.3071C1.51958 13.6324 0.984931 12.8389 0.591042 11.9267C0.197014 11.0146 0 10.0399 0 9.00271C0 7.96562 0.196875 6.99056 0.590625 6.0775C0.984375 5.16458 1.51875 4.37042 2.19375 3.695C2.86875 3.01958 3.6625 2.48493 4.575 2.09104C5.4875 1.69701 6.4625 1.5 7.5 1.5C8.05445 1.5 8.59347 1.55639 9.11708 1.66917C9.64056 1.78181 10.1378 1.94924 10.609 2.17146V3.10104C10.1442 2.85521 9.65139 2.66583 9.13042 2.53292C8.60944 2.39986 8.06597 2.33333 7.5 2.33333C5.65278 2.33333 4.07986 2.98264 2.78125 4.28125C1.48264 5.57986 0.833333 7.15278 0.833333 9C0.833333 10.8472 1.48264 12.4201 2.78125 13.7188C4.07986 15.0174 5.65278 15.6667 7.5 15.6667C9.34722 15.6667 10.9201 15.0174 12.2188 13.7188C13.5174 12.4201 14.1667 10.8472 14.1667 9C14.1667 8.59833 14.1322 8.20785 14.0633 7.82854C13.9944 7.44924 13.8943 7.08118 13.7629 6.72438H14.6571C14.7714 7.08438 14.8571 7.45194 14.9142 7.82708C14.9714 8.20208 15 8.59306 15 9C15 10.0375 14.8032 11.0125 14.4096 11.925C14.016 12.8375 13.4818 13.6312 12.8071 14.3062C12.1324 14.9812 11.3389 15.5156 10.4267 15.9094C9.51458 16.3031 8.53993 16.5 7.50271 16.5ZM14.5833 4.41667V2.75H12.9167V1.91667H14.5833V0.25H15.4167V1.91667H17.0833V2.75H15.4167V4.41667H14.5833ZM10.2602 7.84625C10.5194 7.84625 10.7385 7.75549 10.9175 7.57396C11.0964 7.39243 11.1858 7.17208 11.1858 6.91292C11.1858 6.65361 11.0951 6.43451 10.9137 6.25563C10.7322 6.0766 10.5119 5.98708 10.2527 5.98708C9.9934 5.98708 9.77431 6.07785 9.59542 6.25938C9.41639 6.4409 9.32688 6.66125 9.32688 6.92042C9.32688 7.17972 9.41764 7.39882 9.59917 7.57771C9.78056 7.75674 10.0009 7.84625 10.2602 7.84625ZM4.74729 7.84625C5.0066 7.84625 5.2257 7.75549 5.40458 7.57396C5.58361 7.39243 5.67313 7.17208 5.67313 6.91292C5.67313 6.65361 5.58236 6.43451 5.40083 6.25563C5.21944 6.0766 4.9991 5.98708 4.73979 5.98708C4.48063 5.98708 4.26153 6.07785 4.0825 6.25938C3.90361 6.4409 3.81417 6.66125 3.81417 6.92042C3.81417 7.17972 3.90486 7.39882 4.08625 7.57771C4.26778 7.75674 4.48813 7.84625 4.74729 7.84625ZM7.5 13.0704C8.31056 13.0704 9.0466 12.8512 9.70813 12.4127C10.3697 11.9741 10.8687 11.3921 11.2052 10.6667H3.79479C4.13132 11.3921 4.63035 11.9741 5.29188 12.4127C5.9534 12.8512 6.68944 13.0704 7.5 13.0704Z" fill="#1C1B1F"/>
</svg>
