<svg width="15" height="12" viewBox="0 0 15 12" fill="none" xmlns="http://www.w3.org/2000/svg">
<path d="M1.34625 11.8333C0.962639 11.8333 0.642361 11.7049 0.385417 11.4479C0.128472 11.191 0 10.8707 0 10.4871V8.72437H0.833333V10.4871C0.833333 10.6154 0.886736 10.733 0.993542 10.8398C1.10035 10.9466 1.21792 11 1.34625 11H13.6538C13.7821 11 13.8997 10.9466 14.0065 10.8398C14.1133 10.733 14.1667 10.6154 14.1667 10.4871V1.51291C14.1667 1.38457 14.1133 1.267 14.0065 1.1602C13.8997 1.05339 13.7821 0.99999 13.6538 0.99999H1.34625C1.21792 0.99999 1.10035 1.05339 0.993542 1.1602C0.886736 1.267 0.833333 1.38457 0.833333 1.51291V3.27561H0V1.51291C0 1.1293 0.128472 0.809018 0.385417 0.552073C0.642361 0.295129 0.962639 0.166656 1.34625 0.166656H13.6538C14.0374 0.166656 14.3576 0.295129 14.6146 0.552073C14.8715 0.809018 15 1.1293 15 1.51291V10.4871C15 10.8707 14.8715 11.191 14.6146 11.4479C14.3576 11.7049 14.0374 11.8333 13.6538 11.8333H1.34625ZM7.40375 8.85249L6.81417 8.25311L8.65542 6.41666H0V5.58332H8.65542L6.81417 3.74686L7.40375 3.14749L10.2565 5.99999L7.40375 8.85249Z" fill="#1C1B1F"/>
</svg>
