<svg width="37" height="36" viewBox="0 0 37 36" fill="none" xmlns="http://www.w3.org/2000/svg">
<g filter="url(#filter0_ii_956_440)">
<rect x="0.5" width="36" height="36" rx="8" fill="#FCFCFC"/>
<mask id="mask0_956_440" style="mask-type:alpha" maskUnits="userSpaceOnUse" x="8" y="8" width="21" height="20">
<rect x="8.5" y="8" width="20" height="20" fill="#D9D9D9"/>
</mask>
<g mask="url(#mask0_956_440)">
<path d="M22.0866 17.9679L18.5643 14.4454L22.0866 10.9231L25.6091 14.4454L22.0866 17.9679ZM12.3462 16.8462V11.846H17.3464V16.8462H12.3462ZM19.6539 24.1539V19.1537H24.6541V24.1539H19.6539ZM12.3462 24.1539V19.1537H17.3464V24.1539H12.3462ZM13.1797 16.0129H16.5131V12.6796H13.1797V16.0129ZM22.1074 16.8204L24.4616 14.4662L22.1074 12.1121L19.7533 14.4662L22.1074 16.8204ZM20.4872 23.3204H23.8206V19.9871H20.4872V23.3204ZM13.1797 23.3204H16.5131V19.9871H13.1797V23.3204Z" fill="#7F7F7F"/>
</g>
</g>
<defs>
<filter id="filter0_ii_956_440" x="-0.1" y="-0.6" width="37.2" height="37.2" filterUnits="userSpaceOnUse" color-interpolation-filters="sRGB">
<feFlood flood-opacity="0" result="BackgroundImageFix"/>
<feBlend mode="normal" in="SourceGraphic" in2="BackgroundImageFix" result="shape"/>
<feColorMatrix in="SourceAlpha" type="matrix" values="0 0 0 0 0 0 0 0 0 0 0 0 0 0 0 0 0 0 127 0" result="hardAlpha"/>
<feOffset dx="0.6" dy="0.6"/>
<feGaussianBlur stdDeviation="0.3"/>
<feComposite in2="hardAlpha" operator="arithmetic" k2="-1" k3="1"/>
<feColorMatrix type="matrix" values="0 0 0 0 0 0 0 0 0 0 0 0 0 0 0 0 0 0 0.06 0"/>
<feBlend mode="normal" in2="shape" result="effect1_innerShadow_956_440"/>
<feColorMatrix in="SourceAlpha" type="matrix" values="0 0 0 0 0 0 0 0 0 0 0 0 0 0 0 0 0 0 127 0" result="hardAlpha"/>
<feOffset dx="-0.6" dy="-0.6"/>
<feGaussianBlur stdDeviation="0.35"/>
<feComposite in2="hardAlpha" operator="arithmetic" k2="-1" k3="1"/>
<feColorMatrix type="matrix" values="0 0 0 0 0 0 0 0 0 0 0 0 0 0 0 0 0 0 0.01 0"/>
<feBlend mode="normal" in2="effect1_innerShadow_956_440" result="effect2_innerShadow_956_440"/>
</filter>
</defs>
</svg>
