<svg width="64" height="32" viewBox="0 0 64 32" fill="none" xmlns="http://www.w3.org/2000/svg">
<path d="M18.093 27.4806H14.3523V25.3653C13.84 25.9724 13.1967 26.4613 12.4214 26.8309C11.4158 27.2903 10.3197 27.52 9.13313 27.52C7.54436 27.52 6.12647 27.1506 4.87958 26.4115C3.63266 25.6525 2.6473 24.6236 1.92328 23.3253C1.19929 22.027 0.837158 20.5888 0.837158 19.0109C0.83718 17.4131 1.19928 15.9748 1.92328 14.6965C2.64729 13.4183 3.6327 12.3996 4.87958 11.6406C6.14658 10.8816 7.55438 10.5022 9.10292 10.5022C10.3498 10.5022 11.456 10.7519 12.4214 11.2512C13.0927 11.5778 13.6658 11.9971 14.1412 12.509V6.39998C14.1412 6.39998 13.9784 4.47998 16.1171 4.47998C18.2558 4.47998 18.093 6.39998 18.093 6.39998V27.4806ZM22.6511 10.24C24.7674 10.24 24.6046 12.16 24.6046 12.16V27.52H20.6976V12.16C20.6976 12.16 20.5348 10.24 22.6511 10.24ZM31.342 10.8078H35.2858V14.3631H31.342V21.4428C31.342 21.9897 31.4366 22.4557 31.6259 22.8406C31.8362 23.2255 32.1518 23.5193 32.5724 23.7219C33.0141 23.9244 33.5715 24.0256 34.2445 24.0256C34.3918 24.0256 34.5602 24.0156 34.7495 23.9953C34.9597 23.975 35.1595 23.9546 35.3488 23.9344V27.3378C35.0543 27.3783 34.7178 27.4188 34.3393 27.4594C33.9607 27.4999 33.6135 27.52 33.298 27.52C31.3631 27.52 29.8592 27.0134 28.7866 26.0006C27.7351 24.9675 27.2093 23.5192 27.2093 21.6556V7.03998H31.342V10.8078ZM41.435 10.8078H45.3789V14.3631H41.435V21.4428C41.435 21.9897 41.5296 22.4557 41.7189 22.8406C41.9292 23.2255 42.2448 23.5193 42.6655 23.7219C43.1071 23.9244 43.6645 24.0256 44.3376 24.0256C44.4848 24.0256 44.6532 24.0156 44.8425 23.9953C45.0528 23.975 45.2525 23.9546 45.4418 23.9344V27.3378C45.1474 27.3783 44.8109 27.4188 44.4323 27.4594C44.0537 27.4999 43.7065 27.52 43.391 27.52C41.4561 27.52 39.9523 27.0134 38.8796 26.0006C37.8281 24.9675 37.3023 23.5192 37.3023 21.6556V7.03998H41.435V10.8078ZM55.2245 10.24C56.8552 10.24 58.3331 10.6152 59.658 11.3656C60.983 12.116 62.033 13.1404 62.8076 14.4384C63.6026 15.7161 64 17.1967 64 18.88C64 20.543 63.6026 22.0236 62.8076 23.3215C62.0126 24.6196 60.9525 25.6439 59.6275 26.3944C58.3025 27.1448 56.8349 27.52 55.2245 27.52C53.5938 27.52 52.1058 27.1447 50.7605 26.3944C49.4355 25.6439 48.3753 24.6196 47.5803 23.3215C46.8058 22.0235 46.4186 20.543 46.4186 18.88C46.4186 17.2169 46.8058 15.7364 47.5803 14.4384C48.3753 13.1404 49.4355 12.116 50.7605 11.3656C52.0854 10.6152 53.5734 10.24 55.2245 10.24ZM9.55568 14.0975C8.67077 14.0975 7.87623 14.3171 7.17232 14.7565C6.46843 15.176 5.91549 15.7553 5.51326 16.4944C5.13115 17.2134 4.94001 18.0522 4.93999 19.0109C4.93999 19.9697 5.13114 20.8188 5.51326 21.5578C5.91549 22.2968 6.46845 22.8762 7.17232 23.2956C7.87622 23.715 8.67079 23.9247 9.55568 23.9247C10.4606 23.9247 11.255 23.715 11.9387 23.2956C12.6225 22.8762 13.1556 22.2968 13.5377 21.5578C13.9399 20.8188 14.1412 19.9697 14.1412 19.0109C14.1411 18.0722 13.9399 17.2334 13.5377 16.4944C13.1556 15.7353 12.6225 15.146 11.9387 14.7265C11.255 14.3071 10.4606 14.0975 9.55568 14.0975ZM55.2245 13.8906C54.3072 13.8906 53.5021 14.1138 52.809 14.56C52.116 14.9859 51.5656 15.574 51.1579 16.3244C50.7706 17.0545 50.577 17.9065 50.577 18.88C50.577 19.8332 50.7706 20.6952 51.1579 21.4659C51.5656 22.2163 52.116 22.8044 52.809 23.2303C53.5021 23.6562 54.3072 23.8694 55.2245 23.8694C56.1214 23.8694 56.9063 23.6562 57.5789 23.2303C58.272 22.8044 58.8122 22.2163 59.1995 21.4659C59.6072 20.6952 59.811 19.8332 59.811 18.88C59.811 17.9065 59.6072 17.0545 59.1995 16.3244C58.8122 15.574 58.272 14.9859 57.5789 14.56C56.9063 14.1138 56.1214 13.8906 55.2245 13.8906ZM22.6511 4.47998C23.9782 4.47998 24.9302 5.41568 24.9302 6.71998C24.9302 8.02428 23.9782 8.95998 22.6511 8.95998C21.3241 8.95998 20.372 8.02428 20.372 6.71998C20.372 5.41568 21.3241 4.47998 22.6511 4.47998Z" fill="#171719"/>
</svg>
