<svg width="32" height="32" viewBox="0 0 32 32" fill="none" xmlns="http://www.w3.org/2000/svg">
<path d="M14.1259 11.0304C18.0273 11.8192 20.7246 14.7723 22.3873 17.9802C24.0716 21.2297 24.9188 25.1344 24.9167 28.6266C24.916 29.845 23.8808 30.8321 22.6046 30.8314C21.3284 30.8307 20.2943 29.8425 20.2951 28.6241C20.2968 25.7408 19.5823 22.5169 18.245 19.9369C16.8862 17.3152 15.1021 15.7376 13.1684 15.3466C10.9744 14.9031 9.46889 15.3426 8.47682 16.0375C7.44786 16.7582 6.00165 16.5462 5.24666 15.5639C4.49168 14.5816 4.71377 13.2011 5.74271 12.4803C7.92334 10.9529 10.8074 10.3595 14.1259 11.0304Z" fill="url(#paint0_linear_952_886)"/>
<g filter="url(#filter0_f_952_886)">
<path d="M24.5521 24.5279L22.889 19.0221L22.2882 20.1048L21.4216 21.3181L20.4973 22.2556L19.4741 23.0335L20.2745 27.7597L21.3927 27.1088L22.577 26.3091L23.7325 25.3164L24.5521 24.5279Z" fill="#393939" fill-opacity="0.6"/>
</g>
<path d="M6.06769 12.2637C7.11899 11.6198 8.52236 11.8905 9.22733 12.8831C9.94348 13.8916 9.66771 15.2633 8.61135 15.947L8.56734 15.9758C6.71301 17.2087 5.91887 19.8275 6.72747 22.0611C7.11159 23.1221 7.84007 24.0206 8.93377 24.5945C10.0302 25.1697 11.6836 25.5161 14.0744 25.1311C16.8789 24.6796 18.8944 23.6435 20.3855 22.3018C21.3142 21.4661 22.7768 21.5074 23.6521 22.394C24.5275 23.2806 24.4842 24.6767 23.5555 25.5123C21.3584 27.4892 18.4911 28.8943 14.8431 29.4817C11.6464 29.9964 8.89541 29.6088 6.70773 28.461C4.51732 27.3118 3.08186 25.498 2.35931 23.5022C0.960958 19.6396 2.16341 14.7897 6.01791 12.2951L6.06769 12.2637Z" fill="url(#paint1_linear_952_886)"/>
<path d="M27.3937 0.591242C28.6494 0.554315 29.7019 1.48086 29.772 2.67138L29.7746 2.72829L29.792 3.27181C29.8798 6.06423 29.9624 9.95051 29.3123 13.8365C28.622 17.9635 27.0578 22.4045 23.4783 25.581C22.5436 26.4105 21.0814 26.3595 20.2125 25.4672C19.3436 24.5749 19.397 23.1791 20.3317 22.3495C22.8236 20.1381 24.131 16.8323 24.7485 13.1407C25.363 9.46708 25.2474 5.72187 25.1552 2.86412C25.1159 1.64638 26.1181 0.628763 27.3937 0.591242Z" fill="url(#paint2_linear_952_886)"/>
<defs>
<filter id="filter0_f_952_886" x="17.4741" y="17.0221" width="9.07788" height="12.7375" filterUnits="userSpaceOnUse" color-interpolation-filters="sRGB">
<feFlood flood-opacity="0" result="BackgroundImageFix"/>
<feBlend mode="normal" in="SourceGraphic" in2="BackgroundImageFix" result="shape"/>
<feGaussianBlur stdDeviation="1" result="effect1_foregroundBlur_952_886"/>
</filter>
<linearGradient id="paint0_linear_952_886" x1="8.16338" y1="16.1891" x2="12.2617" y2="32.6335" gradientUnits="userSpaceOnUse">
<stop stop-color="#03BFFF"/>
<stop offset="0.38282" stop-color="#0C65FF"/>
</linearGradient>
<linearGradient id="paint1_linear_952_886" x1="4.87018" y1="18.5054" x2="18.1386" y2="28.4563" gradientUnits="userSpaceOnUse">
<stop stop-color="#03BFFF"/>
<stop offset="1" stop-color="#02BFFD"/>
</linearGradient>
<linearGradient id="paint2_linear_952_886" x1="29.4935" y1="1.8616" x2="18.0595" y2="21.7191" gradientUnits="userSpaceOnUse">
<stop offset="0.638462" stop-color="#02FE98"/>
<stop offset="1" stop-color="#02BFFD"/>
</linearGradient>
</defs>
</svg>
