<svg width="28" height="28" viewBox="0 0 28 28" fill="none" xmlns="http://www.w3.org/2000/svg">
<path d="M14 0C16.228 0 18.3341 0.521275 20.2041 1.44727C20.506 4.04314 20.5643 8.28014 19.6436 12.1279C19.4062 13.1198 19.1112 14.0551 18.7549 14.916C17.3007 12.4075 15.1549 10.7931 12.7471 10.2832C10.5028 9.80796 8.55823 10.23 7.09082 11.3066C4.6145 13.1239 3.86877 16.5053 4.84668 19.1953C5.35106 20.5824 6.32573 21.8338 7.79395 22.623C9.25983 23.4109 11.0992 23.6754 13.2393 23.3145C14.9881 23.0194 16.4443 22.343 17.6543 21.4092C17.8144 23.1848 17.6893 25.258 17.1572 27.6416C16.1425 27.8755 15.0858 28 14 28C6.26801 28 0 21.732 0 14C0 6.26801 6.26801 0 14 0ZM23.3721 3.60059C26.2135 6.16292 28 9.87262 28 14C28 19.4145 24.9255 24.1095 20.4277 26.4385C20.8713 23.48 20.7491 20.8422 20.2021 18.5938C21.3346 16.8508 22.0825 14.8235 22.5605 12.8262C23.319 9.65654 23.4778 6.29811 23.3721 3.60059ZM8.86621 13.7256C9.56217 13.215 10.6116 12.8981 12.126 13.2188C13.8349 13.5809 15.8131 15.1394 16.9004 18.0039C15.8194 19.234 14.4523 20.0686 12.7402 20.3574C11.1165 20.6313 9.97848 20.3915 9.21387 19.9805C8.45201 19.5708 7.94158 18.9285 7.66602 18.1709C7.08423 16.5708 7.59731 14.6566 8.86621 13.7256Z" fill="#00FFA3"/>
</svg>
